<?xml version="1.0" standalone="no"?>
<svg xmlns:xlink="http://www.w3.org/1999/xlink" id="wave" style="transform:rotate(0deg); transition: 0.3s" viewBox="0 0 1440 260" version="1.1" xmlns="http://www.w3.org/2000/svg"><defs><linearGradient id="sw-gradient-0" x1="0" x2="0" y1="1" y2="0"><stop stop-color="rgba(177.295, 30.799, 177.959, 1)" offset="0%"/><stop stop-color="rgba(132.424, 101.343, 32.639, 1)" offset="100%"/></linearGradient></defs><path style="transform:translate(0, 0px); opacity:1" fill="url(#sw-gradient-0)" d="M0,78L40,73.7C80,69,160,61,240,69.3C320,78,400,104,480,134.3C560,165,640,199,720,190.7C800,182,880,130,960,91C1040,52,1120,26,1200,52C1280,78,1360,156,1440,169C1520,182,1600,130,1680,95.3C1760,61,1840,43,1920,60.7C2000,78,2080,130,2160,125.7C2240,121,2320,61,2400,65C2480,69,2560,139,2640,147.3C2720,156,2800,104,2880,95.3C2960,87,3040,121,3120,112.7C3200,104,3280,52,3360,30.3C3440,9,3520,17,3600,21.7C3680,26,3760,26,3840,39C3920,52,4000,78,4080,104C4160,130,4240,156,4320,160.3C4400,165,4480,147,4560,117C4640,87,4720,43,4800,26C4880,9,4960,17,5040,43.3C5120,69,5200,113,5280,112.7C5360,113,5440,69,5520,43.3C5600,17,5680,9,5720,4.3L5760,0L5760,260L5720,260C5680,260,5600,260,5520,260C5440,260,5360,260,5280,260C5200,260,5120,260,5040,260C4960,260,4880,260,4800,260C4720,260,4640,260,4560,260C4480,260,4400,260,4320,260C4240,260,4160,260,4080,260C4000,260,3920,260,3840,260C3760,260,3680,260,3600,260C3520,260,3440,260,3360,260C3280,260,3200,260,3120,260C3040,260,2960,260,2880,260C2800,260,2720,260,2640,260C2560,260,2480,260,2400,260C2320,260,2240,260,2160,260C2080,260,2000,260,1920,260C1840,260,1760,260,1680,260C1600,260,1520,260,1440,260C1360,260,1280,260,1200,260C1120,260,1040,260,960,260C880,260,800,260,720,260C640,260,560,260,480,260C400,260,320,260,240,260C160,260,80,260,40,260L0,260Z"/></svg>